<?xml version="1.0" encoding="UTF-8" standalone="no"?><!DOCTYPE svg PUBLIC "-//W3C//DTD SVG 1.1//EN" "http://www.w3.org/Graphics/SVG/1.1/DTD/svg11.dtd"><svg width="100%" height="100%" viewBox="0 0 167 167" version="1.1" xmlns="http://www.w3.org/2000/svg" xmlns:xlink="http://www.w3.org/1999/xlink" xml:space="preserve" xmlns:serif="http://www.serif.com/" style="fill-rule:evenodd;clip-rule:evenodd;stroke-linejoin:round;stroke-miterlimit:2;"><path d="M166.667,33.333l-0,100c-0,18.398 -14.936,33.334 -33.334,33.334l-100,-0c-18.397,-0 -33.333,-14.936 -33.333,-33.334l0,-100c0,-18.397 14.936,-33.333 33.333,-33.333l100,0c18.398,0 33.334,14.936 33.334,33.333Z" style="fill:url(#_Linear1);"/><path d="M98.013,54.167l-29.36,-0c0.299,-1.342 0.457,-2.736 0.457,-4.167c-0,-1.431 -0.158,-2.825 -0.457,-4.167l29.36,0c-0.299,1.342 -0.456,2.736 -0.456,4.167c-0,1.431 0.157,2.825 0.456,4.167Z" style="fill:#fff;fill-opacity:0.7;"/><path d="M62.066,64.815l16.652,33.304c-2.771,0.688 -5.304,1.982 -7.451,3.733l-16.652,-33.304c2.772,-0.689 5.305,-1.982 7.451,-3.733Z" style="fill:#fff;fill-opacity:0.7;"/><path d="M112.051,68.548l-16.652,33.304c-2.146,-1.751 -4.679,-3.045 -7.45,-3.733l16.652,-33.304c2.146,1.751 4.679,3.044 7.45,3.733Z" style="fill:#fff;fill-opacity:0.7;"/><circle cx="50" cy="50" r="16.667" style="fill:#fff;fill-opacity:0.9;"/><circle cx="116.667" cy="50" r="16.667" style="fill:#fff;fill-opacity:0.9;"/><circle cx="83.333" cy="116.667" r="16.667" style="fill:#fff;fill-opacity:0.9;"/><defs><linearGradient id="_Linear1" x1="0" y1="0" x2="1" y2="0" gradientUnits="userSpaceOnUse" gradientTransform="matrix(166.667,166.667,-166.667,166.667,0,0)"><stop offset="0" style="stop-color:#667eea;stop-opacity:1"/><stop offset="1" style="stop-color:#764ba2;stop-opacity:1"/></linearGradient></defs></svg>